<svg width="285" height="288" viewBox="0 0 285 288" fill="none" xmlns="http://www.w3.org/2000/svg">
<path d="M205.274 0H78.9516C35.3478 0 0 35.8172 0 80V208C0 252.183 35.3478 288 78.9516 288H205.274C248.878 288 284.226 252.183 284.226 208V80C284.226 35.8172 248.878 0 205.274 0Z" fill="#FF5B36"/>
<path d="M102.321 184.897C96.1731 184.897 90.6149 183.831 85.6465 181.697C80.7617 179.563 76.8881 176.491 74.0248 172.481C71.1615 168.471 69.6878 163.735 69.6035 158.273H88.5519C88.8045 161.943 90.0678 164.843 92.3416 166.977C94.6999 169.111 97.8998 170.177 101.942 170.177C106.069 170.177 109.311 169.195 111.669 167.233C114.027 165.185 115.206 162.539 115.206 159.297C115.206 156.651 114.406 154.475 112.806 152.769C111.205 151.063 109.184 149.739 106.742 148.801C104.384 147.777 101.1 146.667 96.8892 145.473C91.1628 143.767 86.4889 142.103 82.8674 140.481C79.3304 138.775 76.2565 136.257 73.6458 132.929C71.1194 129.515 69.8562 124.993 69.8562 119.361C69.8562 114.071 71.1615 109.463 73.7722 105.537C76.3829 101.611 80.0464 98.625 84.7622 96.577C89.478 94.4434 94.868 93.377 100.932 93.377C110.027 93.377 117.395 95.6386 123.038 100.161C128.764 104.599 131.922 110.827 132.512 118.849H113.058C112.89 115.777 111.584 113.259 109.142 111.297C106.784 109.249 103.626 108.225 99.6683 108.225C96.2157 108.225 93.4366 109.121 91.331 110.913C89.3098 112.705 88.2993 115.307 88.2993 118.721C88.2993 121.111 89.0572 123.115 90.5731 124.737C92.1734 126.273 94.1101 127.553 96.3839 128.577C98.7422 129.515 102.027 130.625 106.237 131.905C111.963 133.611 116.637 135.319 120.259 137.025C123.88 138.731 126.996 141.291 129.607 144.705C132.218 148.119 133.523 152.599 133.523 158.145C133.523 162.923 132.301 167.361 129.859 171.457C127.417 175.553 123.838 178.839 119.122 181.313C114.406 183.703 108.805 184.897 102.321 184.897ZM215.806 113.089L172.477 217.537H153.655L168.814 182.209L140.771 113.089H160.603L178.667 162.625L196.984 113.089H215.806Z" fill="white"/>
</svg>
