<svg width="143" height="43" viewBox="0 0 143 43" fill="none" xmlns="http://www.w3.org/2000/svg">
<g id="Frame" clip-path="url(#clip0_229_1006)">
<path id="Vector" d="M29.9839 0.300781H11.5323C5.16317 0.300781 0 5.52413 0 11.9674V30.6341C0 37.0774 5.16317 42.3008 11.5323 42.3008H29.9839C36.353 42.3008 41.5161 37.0774 41.5161 30.6341V11.9674C41.5161 5.52413 36.353 0.300781 29.9839 0.300781Z" fill="#FF5B36"/>
<path id="Vector_2" d="M14.9458 27.2646C14.0478 27.2646 13.2359 27.1091 12.5102 26.798C11.7967 26.4868 11.2309 26.0388 10.8126 25.454C10.3944 24.8691 10.1791 24.1785 10.1668 23.382H12.9346C12.9715 23.9171 13.156 24.3402 13.4881 24.6513C13.8326 24.9625 14.3 25.118 14.8905 25.118C15.4932 25.118 15.9668 24.9748 16.3112 24.6886C16.6557 24.39 16.8279 24.0042 16.8279 23.5313C16.8279 23.1455 16.7111 22.8282 16.4773 22.5793C16.2435 22.3305 15.9483 22.1375 15.5916 22.0006C15.2471 21.8513 14.7674 21.6895 14.1524 21.5153C13.316 21.2665 12.6332 21.0238 12.1043 20.7873C11.5876 20.5385 11.1386 20.1713 10.7573 19.686C10.3883 19.1882 10.2037 18.5286 10.2037 17.7073C10.2037 16.9358 10.3944 16.2638 10.7757 15.6913C11.1571 15.1188 11.6922 14.6833 12.381 14.3846C13.0699 14.0735 13.8572 13.918 14.7428 13.918C16.0714 13.918 17.1477 14.2478 17.9719 14.9073C18.8083 15.5545 19.2696 16.4628 19.3557 17.6326H16.5142C16.4896 17.1846 16.2989 16.8175 15.9422 16.5313C15.5977 16.2326 15.1364 16.0833 14.5583 16.0833C14.054 16.0833 13.6481 16.214 13.3405 16.4753C13.0453 16.7366 12.8977 17.1162 12.8977 17.614C12.8977 17.9625 13.0084 18.2548 13.2298 18.4913C13.4636 18.7153 13.7465 18.902 14.0786 19.0513C14.4231 19.1882 14.9028 19.35 15.5178 19.5366C16.3542 19.7855 17.037 20.0345 17.5659 20.2833C18.0949 20.5322 18.55 20.9055 18.9314 21.4033C19.3127 21.9011 19.5034 22.5545 19.5034 23.3633C19.5034 24.0602 19.325 24.7073 18.9683 25.3046C18.6116 25.902 18.0887 26.3811 17.3999 26.742C16.7111 27.0905 15.893 27.2646 14.9458 27.2646ZM31.5223 16.7926L25.1934 32.0246H22.4441L24.6583 26.8726L20.562 16.7926H23.4589L26.0975 24.0166L28.773 16.7926H31.5223Z" fill="white"/>
<path id="Vector_3" d="M58.7684 28.4309C57.8704 28.4309 57.0585 28.2754 56.3328 27.9643C55.6193 27.6531 55.0535 27.2051 54.6352 26.6203C54.217 26.0354 54.0018 25.3447 53.9894 24.5483H56.7572C56.7941 25.0834 56.9786 25.5064 57.3107 25.8176C57.6552 26.1287 58.1226 26.2843 58.713 26.2843C59.3158 26.2843 59.7893 26.1411 60.1338 25.8549C60.4783 25.5563 60.6505 25.1704 60.6505 24.6976C60.6505 24.3118 60.5336 23.9944 60.2999 23.7456C60.0661 23.4967 59.7709 23.3038 59.4142 23.1669C59.0697 23.0176 58.59 22.8558 57.975 22.6816C57.1385 22.4327 56.4558 22.1901 55.9268 21.9536C55.4102 21.7047 54.9612 21.3376 54.5799 20.8523C54.2108 20.3544 54.0263 19.6949 54.0263 18.8736C54.0263 18.1021 54.217 17.4301 54.5983 16.8576C54.9797 16.2851 55.5148 15.8496 56.2036 15.5509C56.8924 15.2398 57.6797 15.0843 58.5654 15.0843C59.8939 15.0843 60.9702 15.4141 61.7945 16.0736C62.6309 16.7207 63.0922 17.6291 63.1783 18.7989H60.3368C60.3122 18.3509 60.1215 17.9838 59.7648 17.6976C59.4203 17.3989 58.959 17.2496 58.3809 17.2496C57.8766 17.2496 57.4707 17.3803 57.1631 17.6416C56.8679 17.9029 56.7203 18.2824 56.7203 18.7803C56.7203 19.1287 56.831 19.4211 57.0524 19.6576C57.2861 19.8816 57.569 20.0683 57.9012 20.2176C58.2456 20.3544 58.7254 20.5163 59.3404 20.7029C60.1768 20.9518 60.8595 21.2007 61.3885 21.4496C61.9175 21.6984 62.3726 22.0718 62.7539 22.5696C63.1353 23.0674 63.3259 23.7207 63.3259 24.5296C63.3259 25.2264 63.1475 25.8736 62.7908 26.4709C62.4341 27.0683 61.9113 27.5474 61.2225 27.9083C60.5336 28.2567 59.7155 28.4309 58.7684 28.4309ZM75.3449 17.9589L69.016 33.1909H66.2667L68.4809 28.0389L64.3846 17.9589H67.2815L69.9201 25.1829L72.5956 17.9589H75.3449ZM82.402 17.8096C83.6198 17.8096 84.6039 18.2016 85.3543 18.9856C86.1047 19.7571 86.4798 20.8398 86.4798 22.2336V28.3003H83.8966V22.5883C83.8966 21.7669 83.6936 21.1384 83.2877 20.7029C82.8818 20.2549 82.3282 20.0309 81.6271 20.0309C80.9136 20.0309 80.3478 20.2549 79.9295 20.7029C79.5236 21.1384 79.3206 21.7669 79.3206 22.5883V28.3003H76.7374V17.9589H79.3206V19.2469C79.6651 18.7989 80.1017 18.4504 80.6307 18.2016C81.1719 17.9403 81.7623 17.8096 82.402 17.8096ZM93.623 20.1056H91.8332V28.3003H89.2131V20.1056H88.0506V17.9589H89.2131V17.4363C89.2131 16.1669 89.5699 15.2336 90.2833 14.6363C90.9968 14.0389 92.0731 13.7589 93.5123 13.7963V15.9989C92.885 15.9864 92.4483 16.0923 92.2022 16.3163C91.9563 16.5403 91.8332 16.9447 91.8332 17.5296V17.9589H93.623V20.1056ZM97.8804 14.4869V28.3003H95.2972V14.4869H97.8804ZM110.083 17.9589V28.3003H107.481V26.9936C107.149 27.4416 106.712 27.7963 106.171 28.0576C105.642 28.3064 105.064 28.4309 104.437 28.4309C103.637 28.4309 102.93 28.2629 102.315 27.9269C101.7 27.5784 101.214 27.0744 100.857 26.4149C100.513 25.7429 100.34 24.9464 100.34 24.0256V17.9589H102.924V23.6523C102.924 24.4736 103.127 25.1083 103.532 25.5563C103.938 25.9918 104.492 26.2096 105.193 26.2096C105.906 26.2096 106.466 25.9918 106.872 25.5563C107.278 25.1083 107.481 24.4736 107.481 23.6523V17.9589H110.083ZM122.135 22.9056C122.135 23.2789 122.109 23.6149 122.061 23.9136H114.587C114.649 24.6603 114.907 25.2451 115.363 25.6683C115.817 26.0914 116.378 26.3029 117.042 26.3029C118.002 26.3029 118.684 25.8861 119.09 25.0523H121.876C121.581 26.0478 121.015 26.8691 120.179 27.5163C119.342 28.1509 118.315 28.4683 117.097 28.4683C116.113 28.4683 115.227 28.2504 114.44 27.8149C113.665 27.3669 113.056 26.7384 112.613 25.9296C112.183 25.1207 111.967 24.1874 111.967 23.1296C111.967 22.0594 112.183 21.1198 112.613 20.3109C113.044 19.5021 113.646 18.8798 114.421 18.4443C115.196 18.0087 116.088 17.7909 117.097 17.7909C118.068 17.7909 118.936 18.0024 119.699 18.4256C120.474 18.8487 121.07 19.4523 121.489 20.2363C121.919 21.0078 122.135 21.8976 122.135 22.9056ZM119.459 22.1589C119.447 21.4869 119.207 20.9518 118.74 20.5536C118.271 20.1429 117.699 19.9376 117.024 19.9376C116.384 19.9376 115.843 20.1367 115.4 20.5349C114.969 20.9207 114.704 21.4621 114.606 22.1589H119.459ZM129.685 17.8096C130.903 17.8096 131.886 18.2016 132.637 18.9856C133.387 19.7571 133.763 20.8398 133.763 22.2336V28.3003H131.179V22.5883C131.179 21.7669 130.976 21.1384 130.571 20.7029C130.165 20.2549 129.611 20.0309 128.91 20.0309C128.196 20.0309 127.63 20.2549 127.212 20.7029C126.806 21.1384 126.603 21.7669 126.603 22.5883V28.3003H124.02V17.9589H126.603V19.2469C126.947 18.7989 127.384 18.4504 127.913 18.2016C128.454 17.9403 129.045 17.8096 129.685 17.8096ZM139.227 20.1056V25.1083C139.227 25.4567 139.306 25.7118 139.467 25.8736C139.638 26.0229 139.921 26.0976 140.315 26.0976H141.515V28.3003H139.891C137.714 28.3003 136.625 27.2301 136.625 25.0896V20.1056H135.407V17.9589H136.625V15.4016H139.227V17.9589H141.515V20.1056H139.227Z" fill="white"/>
</g>
<defs>
<clipPath id="clip0_229_1006">
<rect width="143" height="42" fill="white" transform="translate(0 0.300781)"/>
</clipPath>
</defs>
</svg>
